<svg xmlns="http://www.w3.org/2000/svg" width="1621.229" height="573" viewBox="0 0 1621.229 573">
  <g id="Group_2" data-name="Group 2" transform="translate(-389.771 -169)">
    <g id="Group_1" data-name="Group 1" transform="translate(51 -93.824)">
      <g id="Path_1" data-name="Path 1" transform="translate(326 393.824)" fill="#7ed56f">
        <path d="M 180.2024230957031 294.5 L 41.79755783081055 294.5 C 37.31089401245117 294.5 33.0757942199707 293.4398193359375 29.20989227294922 291.348876953125 C 25.58019256591797 289.3856506347656 22.40409278869629 286.5354614257813 20.02489280700684 283.1063537597656 C 17.64572525024414 279.67724609375 16.08779144287109 275.7042846679688 15.5195255279541 271.6169738769531 C 14.91462516784668 267.26611328125 15.40324687957764 262.9303283691406 16.9719295501709 258.729736328125 L 87.17282867431641 73.57051849365234 L 87.1749267578125 73.56497955322266 L 87.17699432373047 73.5594482421875 C 88.22518920898438 70.75481414794922 89.64582824707031 68.20758056640625 91.39949035644531 65.98851776123047 C 93.05365753173828 63.89531326293945 95.00432586669922 62.09174728393555 97.19735717773438 60.62794876098633 C 101.4032592773438 57.82061386108398 106.3490600585938 56.33675003051758 111.5000228881836 56.33675003051758 C 116.6509628295898 56.33675003051758 121.5967559814453 57.82061386108398 125.8026580810547 60.62794876098633 C 127.9956893920898 62.09174728393555 129.9463653564453 63.89531326293945 131.6005249023438 65.98851776123047 C 133.3541870117188 68.20758056640625 134.7748260498047 70.75481414794922 135.8230285644531 73.5594482421875 L 205.0254211425781 258.7226867675781 C 206.5961608886719 262.9254455566406 207.085693359375 267.2637023925781 206.4804534912109 271.6169738769531 C 205.9121856689453 275.7042846679688 204.3542633056641 279.67724609375 201.97509765625 283.1063537597656 C 199.5958862304688 286.5354614257813 196.4197998046875 289.3856811523438 192.7900848388672 291.348876953125 C 188.9241943359375 293.4398193359375 184.6890869140625 294.5 180.2024230957031 294.5 Z" stroke="none"/>
        <path d="M 111.4999923706055 58.83673095703125 C 106.8447036743164 58.83673095703125 102.3788833618164 60.17514038085938 98.58528137207031 62.70730590820313 C 96.61027526855469 64.02554321289063 94.85253143310547 65.65103149414063 93.36091613769531 67.53854370117188 C 91.76856994628906 69.55355834960938 90.47589111328125 71.87371826171875 89.51873779296875 74.43466186523438 L 89.51463317871094 74.44570922851563 L 89.51042175292969 74.456787109375 L 19.31394958496094 259.6043090820313 C 17.89205932617188 263.4118041992188 17.44857788085938 267.3374938964844 17.99571228027344 271.272705078125 C 18.51023864746094 274.9735107421875 19.92216491699219 278.5727233886719 22.07891845703125 281.6812133789063 C 24.23567199707031 284.7897338867188 27.11277770996094 287.372314453125 30.39927673339844 289.14990234375 C 33.89581298828125 291.0410766601563 37.73077392578125 292 41.79756164550781 292 L 180.2024230957031 292 C 184.2692108154297 292 188.1041717529297 291.0410766601563 191.6007080078125 289.14990234375 C 194.88720703125 287.372314453125 197.7643127441406 284.7897338867188 199.9210662841797 281.6812133789063 C 202.0778198242188 278.5727233886719 203.48974609375 274.9735107421875 204.0042724609375 271.272705078125 C 204.5517120361328 267.3353271484375 204.1073913574219 263.4073181152344 202.6836700439453 259.597900390625 L 133.4812316894531 74.43466186523438 C 132.5241088867188 71.87371826171875 131.2314147949219 69.55355834960938 129.6390686035156 67.53854370117188 C 128.1474609375 65.65103149414063 126.3897094726563 64.02554321289063 124.4147415161133 62.70730590820313 C 120.6211318969727 60.17514038085938 116.1552810668945 58.83673095703125 111.4999923706055 58.83673095703125 M 111.5000076293945 53.83673095703125 C 122.4844131469727 53.83673095703125 133.4688110351563 60.11923217773438 138.1648101806641 72.68423461914063 L 207.3672485351563 257.8474731445313 C 214.4509887695313 276.8013610839844 200.4367828369141 297 180.2024230957031 297 L 41.79756164550781 297 C 21.56320190429688 297 7.548995971679688 276.8013610839844 14.63273620605469 257.8474731445313 L 84.83517456054688 72.68423461914063 C 89.53118896484375 60.11923217773438 100.5156021118164 53.83673095703125 111.5000076293945 53.83673095703125 Z" stroke="none" fill="#28b485"/>
      </g>
      <g id="Polygon_2" data-name="Polygon 2" transform="translate(422 570.824)" fill="#0f0101">
        <path d="M 29.1445369720459 117.5 L 2.85546088218689 117.5 L 15.99999904632568 18.91596412658691 L 29.1445369720459 117.5 Z" stroke="none"/>
        <path d="M 15.99999904632568 37.83187103271484 L 5.710914611816406 115 L 26.28908348083496 115 L 15.99999904632568 37.83187103271484 M 15.99999904632568 0 L 32 120 L -1.9073486328125e-06 120 L 15.99999904632568 0 Z" stroke="none" fill="#28b485"/>
      </g>
    </g>
    <text id="WE" transform="translate(472 577)" fill="#fff" stroke="#28b485" stroke-width="5" font-size="323" font-family="SegoePrint, Segoe Print"><tspan x="0" y="0">WE</tspan></text>
    <text id="CAMP" transform="translate(998 577)" fill="#28b485" stroke="#fff" stroke-width="5" font-size="323" font-family="SegoePrint, Segoe Print"><tspan x="0" y="0">CAMP</tspan></text>
  </g>
</svg>
