<svg id="Capa_1" enable-background="new 0 0 512 512" height="512" viewBox="0 0 512 512" width="512" xmlns="http://www.w3.org/2000/svg"><g><g>
<path d="m256 78.116-206.861 296.752v59.015h206.861 206.861v-59.015z" fill="#55c57a"/>
<path d="m49.139 415.883v18h206.861 206.861v-18h-206.861z" fill="#28b485"/>
<path d="m256 159.553c0 201.303 142.344 274.33 142.344 274.33h-142.344z" fill="#08475e"/>
<path d="m256 415.883v18h142.344s-10.933-5.617-26.728-18z" fill="#05303d"/>
<path d="m439.142 340.842-40.799 93.041s-142.344-73.027-142.344-274.33c.001 0 38.269 163.18 183.143 181.289z" fill="#28b485"/>
<path d="m256.523 161.607c-.354-1.335-.523-2.054-.523-2.054 0 201.303 142.344 274.33 142.344 274.33l7.893-18s-140.192-68.164-149.714-254.276z" fill="#28b485"/></g>
<path d="m504.482 383.907c-4.15 0-7.515 3.364-7.515 7.514v18.865l-173.262-248.552c-2.373-3.404-7.057-4.242-10.462-1.867-3.405 2.373-4.241 7.057-1.867 10.462l111.674 160.201c-12.876-2.846-25.262-7.018-36.986-12.473-3.764-1.751-8.233-.119-9.983 3.643-1.751 3.763-.12 8.233 3.643 9.983 15.394 7.162 31.818 12.285 48.949 15.278l-33.538 76.483c-11.884-7.478-37.317-25.508-62.473-56.359-20.071-24.615-36.061-52.483-47.525-82.827-8.724-23.094-14.834-47.687-18.283-73.514 1.146 2.461 2.356 4.976 3.629 7.536 14.512 29.17 40.523 69.844 82.038 97.968 3.436 2.328 8.108 1.43 10.436-2.007 2.327-3.435 1.429-8.108-2.007-10.435-70.708-47.902-95.049-136.131-97.435-145.388v-56.75l30.674 44.004c2.373 3.405 7.056 4.243 10.462 1.867 3.405-2.373 4.241-7.057 1.867-10.462l-44.354-63.627c-2.793-4.23-9.537-4.229-12.33 0l-146.254 209.811c-5.68 7.908 6.836 16.683 12.33 8.595l132.576-190.187v325.023h-192.234v-49.255l42.434-60.874c2.373-3.405 1.537-8.089-1.867-10.462-3.405-2.374-8.088-1.537-10.462 1.867l-71.324 102.318v-18.865c0-4.151-3.364-7.514-7.515-7.514-4.15 0-7.515 3.364-7.515 7.514v42.785c-.226 7.133 9.753 10.304 13.679 4.297l27.54-39.507v35.21c0 4.151 3.364 7.515 7.515 7.515h414.525c4.15 0 7.515-3.364 7.515-7.515v-35.21l27.54 39.507c3.927 6.009 13.905 2.833 13.679-4.297v-42.785c0-4.15-3.364-7.514-7.514-7.514zm-240.982-116.815c2.312 7.772 4.888 15.405 7.729 22.89 12.095 31.862 28.965 61.119 50.142 86.958 18.91 23.072 37.733 39.181 51.614 49.422h-109.485zm191.861 159.269h-45.539l30.817-70.279 14.722 21.119z" fill="#ffffff"/></g>
</svg>